<svg viewBox="0 0 1024 1024" version="1.1" xmlns="http://www.w3.org/2000/svg" width="24" height="24">
  <path fill="currentColor" d="M512 96c229.76 0 416 186.24 416 416s-186.24 416-416 416c-152.96 0-287.04-82.88-359.04-206.08l72.32-41.6C288.96 774.4 393.6 832 512 832c176.64 0 320-143.36 320-320s-143.36-320-320-320c-136.32 0-252.8 85.44-298.24 205.44L288 352H96v192l105.28-105.28C247.04 284.16 368 181.76 512 96z"/>
  <path fill="currentColor" d="M544 288v192l153.6 89.6-32 54.4-169.6-99.2V288h48z"/>
</svg>
